<svg xmlns="http://www.w3.org/2000/svg" width="20" height="20" viewBox="0 0 20 20"><title>clock</title><path d="M2.92 14H17V20H2.92z"/><path fill="#fff" d="M4 14H16V19H4z"/><circle cx="10" cy="12" r="8"/><circle cx="10" cy="12" r="7" fill="#fff"/><circle cx="10" cy="12" r="1"/><path d="M7 9L10 13 15 7 10 11 7 9z"/><g><path d="M10,3.2,1.84,7c-.7-1.5.56-3.57,2.81-4.62S9.3,1.69,10,3.2Z"/><path d="M9.09,3.62l-6.34,3c-.47-1,.57-2.47,2.33-3.29S8.63,2.62,9.09,3.62Z" fill="#fff"/></g><g><path d="M18.16,7,10,3.2c.7-1.5,3.09-1.87,5.35-.82S18.86,5.5,18.16,7Z"/><path d="M17.25,6.58l-6.34-3c.47-1,2.27-1.15,4-.33S17.72,5.58,17.25,6.58Z" fill="#fff"/></g></svg>