<?xml version="1.0" encoding="UTF-8"?>
<svg width="50px" height="50px" viewBox="0 0 50 50" version="1.1" xmlns="http://www.w3.org/2000/svg" xmlns:xlink="http://www.w3.org/1999/xlink">
    <!-- Generator: Sketch 47 (45396) - http://www.bohemiancoding.com/sketch -->
    <title>question</title>
    <desc>Created with Sketch.</desc>
    <defs></defs>
    <g id="Page-1" stroke="none" stroke-width="1" fill="none" fill-rule="evenodd">
        <g id="question" fill="#FFFFFF">
            <path d="M25,50 C11.1928813,50 0,38.8071187 0,25 C0,11.1928813 11.1928813,0 25,0 C38.8071187,0 50,11.1928813 50,25 C50,38.8071187 38.8071187,50 25,50 Z M23.19,32.875 L23.19,37 L27.612,37 L27.612,32.875 L23.19,32.875 Z M17.943,20.929 L21.705,20.929 C21.705,19.4329925 22.0294968,18.2395045 22.6785,17.3485 C23.3275032,16.4574955 24.3339932,16.012 25.698,16.012 C25.9840014,16.012 26.3139981,16.0779993 26.688,16.21 C27.0620019,16.3420007 27.4139983,16.5509986 27.744,16.837 C28.0740016,17.1230014 28.3544988,17.5024976 28.5855,17.9755 C28.8165012,18.4485024 28.932,19.0149967 28.932,19.675 C28.932,20.2250027 28.8605007,20.697998 28.7175,21.094 C28.5744993,21.490002 28.3765013,21.8474984 28.1235,22.1665 C27.8704987,22.4855016 27.5845016,22.7769987 27.2655,23.041 C26.9464984,23.3050013 26.6110018,23.5909985 26.259,23.899 C25.8189978,24.2730019 25.4395016,24.6524981 25.1205,25.0375 C24.8014984,25.4225019 24.5320011,25.8679975 24.312,26.374 C24.0919989,26.8800025 23.9325005,27.4684966 23.8335,28.1395 C23.7344995,28.8105034 23.685,29.6299952 23.685,30.598 L27.249,30.598 C27.249,29.805996 27.3204993,29.1350027 27.4635,28.585 C27.6065007,28.0349972 27.8099987,27.556502 28.074,27.1495 C28.3380013,26.742498 28.6459982,26.3740016 28.998,26.044 C29.3500018,25.7139983 29.7349979,25.3730018 30.153,25.021 C30.5050018,24.7129985 30.8569982,24.3995016 31.209,24.0805 C31.5610018,23.7614984 31.8744986,23.398502 32.1495,22.9915 C32.4245014,22.584498 32.6444992,22.1005028 32.8095,21.5395 C32.9745008,20.9784972 33.057,20.3130038 33.057,19.543 C33.057,18.4869947 32.8700019,17.5410042 32.496,16.705 C32.1219981,15.8689958 31.6105032,15.1705028 30.9615,14.6095 C30.3124968,14.0484972 29.5535043,13.6195015 28.6845,13.3225 C27.8154957,13.0254985 26.8750051,12.877 25.863,12.877 C24.6529939,12.877 23.5585049,13.0694981 22.5795,13.4545 C21.6004951,13.8395019 20.7645035,14.3839965 20.0715,15.088 C19.3784965,15.7920035 18.8505018,16.638995 18.4875,17.629 C18.1244982,18.6190049 17.943,19.7189939 17.943,20.929 Z" id="Combined-Shape-Copy"></path>
        </g>
    </g>
</svg>