<?xml version="1.0" encoding="UTF-8"?>
<svg width="96px" height="85px" viewBox="0 0 96 85" version="1.1" xmlns="http://www.w3.org/2000/svg" xmlns:xlink="http://www.w3.org/1999/xlink">
    <!-- Generator: Sketch 47.1 (45422) - http://www.bohemiancoding.com/sketch -->
    <title>ico-continuous</title>
    <desc>Created with Sketch.</desc>
    <defs></defs>
    <g id="Symbols" stroke="none" stroke-width="1" fill="none" fill-rule="evenodd">
        <g id="ico-continuous" fill-rule="nonzero" fill="#FFFFFF">
            <g id="continuous">
                <path d="M80.430359,65.257641 C79.0771282,64.2291282 77.1468718,64.4927179 76.1187692,65.8459487 C75.9214359,66.105641 75.7191795,66.3620513 75.5122051,66.6153846 C72.4258462,70.392 68.2681026,73.4584615 63.1386667,75.7382564 C63.1132308,75.7495385 63.088,75.7610256 63.0629744,75.7731282 C54.9694359,79.6358974 45.5003077,80.1638974 36.417641,77.2652308 C28.4432821,74.6689231 21.9550769,69.6422564 17.1321026,62.3243077 C13.5501538,56.5813333 11.6730256,50.3390769 11.5394872,43.7552821 C11.5362051,43.5950769 11.5364103,43.4344615 11.5351795,43.2740513 L15.3099487,43.2740513 C16.7292308,43.2740513 17.44,41.5581538 16.4363077,40.5546667 L9.57948718,33.6978462 C8.95733333,33.0756923 7.94871795,33.0756923 7.3265641,33.6978462 L0.46974359,40.5546667 C-0.53374359,41.5581538 0.177025641,43.2740513 1.59610256,43.2740513 L5.37641026,43.2740513 C5.42564103,51.2170256 7.62933333,58.7306667 11.9329231,65.6166154 C11.945641,65.6369231 11.9585641,65.6568205 11.9714872,65.6769231 C17.5829744,74.206359 25.1667692,80.0740513 34.529641,83.1222564 C39.0157949,84.5538462 43.5864615,85.2652308 48.0890256,85.2652308 C54.2086154,85.2650256 60.2008205,83.9509744 65.6761026,81.3446154 C72.0898462,78.4873846 77.2518974,74.5255385 81.0182564,69.5692308 C82.0465641,68.2162051 81.7831795,66.2859487 80.430359,65.257641 Z" id="Shape"></path>
                <path d="M94.3774359,42.6412308 L90.5973333,42.6412308 C90.5971282,41.7977436 90.5721026,40.9446154 90.5226667,40.1054359 C90.1302564,33.4570256 88.1497436,26.910359 84.7952821,21.1731282 C81.5245128,15.5790769 76.9405128,10.7255385 71.5386667,7.13702564 C66.0465641,3.48841026 59.6875897,1.14194872 53.1491282,0.351589744 C45.8822564,-0.526974359 38.4923077,0.470153846 31.7778462,3.23405128 C25.1932308,5.94441026 19.3362051,10.3154872 14.84,15.8746667 C13.7712821,17.1956923 13.9762051,19.1333333 15.2972308,20.2020513 C16.6186667,21.2705641 18.5558974,21.0658462 19.6246154,19.7446154 C19.854359,19.4605128 20.0890256,19.1805128 20.3269744,18.9035897 C24.0754872,14.544 28.8229744,11.1054359 34.1202051,8.92492308 C39.8627692,6.56123077 46.1878974,5.70892308 52.4106667,6.46112821 C58.0004103,7.13682051 63.4371282,9.14297436 68.1333333,12.2629744 C72.7581538,15.3355897 76.6828718,19.4904615 79.4828718,24.2793846 C82.3505641,29.184 84.0438974,34.7819487 84.3794872,40.4681026 C84.4008205,40.8297436 84.4168205,41.1942564 84.4276923,41.5593846 C84.438359,41.9204103 84.4434872,42.2818462 84.4436923,42.6414359 L80.664,42.6414359 C79.2447179,42.6414359 78.5339487,44.3573333 79.537641,45.3608205 L86.3944615,52.217641 C87.0166154,52.8397949 88.0252308,52.8397949 88.6473846,52.217641 L95.5042051,45.3608205 C96.5072821,44.3571282 95.7965128,42.6412308 94.3774359,42.6412308 Z" id="Shape"></path>
            </g>
        </g>
    </g>
</svg>