<svg xmlns="http://www.w3.org/2000/svg" width="20" height="20" viewBox="0 0 20 20"><title>mouth</title><path d="M16.95,7.38a3,3,0,0,1,2.8,4.22,10.63,10.63,0,0,1-19.5,0,3,3,0,0,1,2.8-4.22Z"/><path d="M5.45,10.65c0,1.26-1,.76-2.28.76s-2.28.5-2.28-.76,0-2.28,2.28-2.28S5.45,9.4,5.45,10.65Z" fill="#fff"/><path d="M10,10.65c0,1.26-1,.76-2.28.76s-2.28.5-2.28-.76,0-2.28,2.28-2.28S10,9.4,10,10.65Z" fill="#fff"/><path d="M14.55,10.65c0,1.26-1,.76-2.28.76s-2.28.5-2.28-.76,0-2.28,2.28-2.28S14.55,9.4,14.55,10.65Z" fill="#fff"/><path d="M19.11 10.65c0 1.26-1 .76-2.28.76s-2.28.5-2.28-.76 0-2.28 2.28-2.28S19.11 9.4 19.11 10.65zM10 14.72C10 16 9.6 17 9.24 17 8 17 5.45 16 5.45 14.72s1-.76 2.28-.76S10 13.47 10 14.72zM14.55 14.72C14.55 16 12 17 10.76 17c-.5 0-.76-1-.76-2.28S11 14 12.28 14 14.55 13.47 14.55 14.72z" fill="#fff"/></svg>