<svg id="Layer_1" data-name="Layer 1" xmlns="http://www.w3.org/2000/svg" width="20" height="20" viewBox="0 0 20 20"><title>pdf</title><path id="colorize" d="M13 0L3 0 3 20 17 20 17 4 13 0z"/><path fill="#fff" d="M16 19L4 19 4 1 12 1 12 5 16 5 16 19z"/><path fill="#fff" d="M16 4L13 1 13 4 16 4z"/><path d="M1.36,19.44a1.34,1.34,0,0,1-1.19-.73,1.61,1.61,0,0,1,.52-2.05,7.62,7.62,0,0,1,2-1.13A36.27,36.27,0,0,0,6,7.8C4.75,6.31,4,4.91,4,3.9A1.9,1.9,0,0,1,5.77,2,2.15,2.15,0,0,1,8.31,3.7a8.19,8.19,0,0,1-.18,3.57,32.36,32.36,0,0,0,6.22,5.31h0c2.28-.25,4.15-.21,4.94.3a1.43,1.43,0,0,1,.61,1.74h0A2.27,2.27,0,0,1,17.12,16a10.5,10.5,0,0,1-3.25-1.4A52.31,52.31,0,0,0,4.08,17a6.11,6.11,0,0,1-2.16,2.33A1.5,1.5,0,0,1,1.36,19.44ZM7.52,9.53a36.37,36.37,0,0,1-2,5,52.19,52.19,0,0,1,6-1.48A35.41,35.41,0,0,1,7.52,9.53ZM6,4a2.64,2.64,0,0,0,.47,1.12C6.49,4.21,6.28,4,6.28,4s0,0-.09,0H6Z" fill="#f00000"/></svg>