<svg xmlns="http://www.w3.org/2000/svg" width="20" height="20" viewBox="0 0 20 20"><title>question</title><path d="M10,0A10,10,0,1,0,20,10,10,10,0,0,0,10,0Zm1,15H8.81V12.85H11Zm2.26-6.43a2.76,2.76,0,0,1-.43.74,2.89,2.89,0,0,1-.57.52l-.59.43a2.77,2.77,0,0,0-.5.5,1.42,1.42,0,0,0-.27.7V12H9v-.63a2.86,2.86,0,0,1,.23-1,2.89,2.89,0,0,1,.44-.69,3.54,3.54,0,0,1,.53-.5q.28-.21.52-.42a1.86,1.86,0,0,0,.38-.46,1.15,1.15,0,0,0,.13-.63,1.28,1.28,0,0,0-.32-1,1.2,1.2,0,0,0-.87-.31,1.36,1.36,0,0,0-.65.15A1.31,1.31,0,0,0,9,7a1.71,1.71,0,0,0-.26.57,2.87,2.87,0,0,0-.08.71H6.56a4,4,0,0,1,.26-1.39A3.29,3.29,0,0,1,7.5,5.75,3.09,3.09,0,0,1,8.57,5,3.6,3.6,0,0,1,10,4.77,4.39,4.39,0,0,1,11.62,5a3.23,3.23,0,0,1,1.07.68,2.47,2.47,0,0,1,.58.88,2.5,2.5,0,0,1,.17.88A3,3,0,0,1,13.27,8.58Z"/></svg>