<svg xmlns="http://www.w3.org/2000/svg" width="20" height="20" viewBox="0 0 20 20"><title>scale</title><g><path d="M6.67 11.52H7.72v3.75l1.9-1.93h1.29L9.09 15.09l2 3H9.81L8.35 15.79l-.63.61v1.71H6.67zM16 17.86c0 1.43-.84 2.14-2.34 2.14-1 0-2-.37-2.13-1.48h1.05c.13.6.61.7 1.14.7A1.08 1.08 0 0 0 14.95 18v-.73h0a1.63 1.63 0 0 1-1.43.84c-1.51 0-2.14-1.14-2.14-2.51a2.2 2.2 0 0 1 2.16-2.39 1.5 1.5 0 0 1 1.41.78h0v-.66H16zm-1.05-2.24c0-.82-.37-1.58-1.28-1.58s-1.25.87-1.25 1.66.38 1.58 1.25 1.58S14.95 16.43 14.95 15.62z"/></g><path d="M10,0A10,10,0,0,0,0,10H20A10,10,0,0,0,10,0Zm0,1a9.47,9.47,0,0,1,8.95,8H1.05A9.47,9.47,0,0,1,10,1Z"/><path transform="rotate(-69.33 6.916 7.123)" d="M6.42 3.12H7.42V11.120000000000001H6.42z"/></svg>