<svg xmlns="http://www.w3.org/2000/svg" width="20" height="20" viewBox="0 0 20 20"><title>toothbrush</title><path d="M2.63,9.87l.16-.08c.1,0,.26-.14.44-.21a3.19,3.19,0,0,0,1.15-.69,3.84,3.84,0,0,0,.3-.5c.11-.19.26-.44.43-.7s.3-.5.51-.81.43-.63.69-.94A10.18,10.18,0,0,1,7.12,5c.16-.15.29-.3.52-.49l.47-.36a7.31,7.31,0,0,1,2.1-1.06A3.58,3.58,0,0,1,12.08,3a1.49,1.49,0,0,1,.49.22l.15.1-.14.12a3.16,3.16,0,0,0-.3.35A8,8,0,0,0,11.62,5a15.75,15.75,0,0,1-.94,1.67l-.58.84a11.29,11.29,0,0,1-.7.92,11.39,11.39,0,0,1-.83.89,7.2,7.2,0,0,1-1,.88,6,6,0,0,1-1.24.65,3.45,3.45,0,0,1-1.46.24,2.62,2.62,0,0,1-1.09-.33,3.35,3.35,0,0,1-.63-.44A3.47,3.47,0,0,1,2.75,10Z"/><path d="M2.92 20L5.74 20 17.88 7.87 16.46 6.45 15.75 7.16 12.93 4.33 5.85 11.4 8.68 14.23 2.92 20z"/></svg>