<svg xmlns="http://www.w3.org/2000/svg" width="20" height="20" viewBox="0 0 20 20"><title>xlsx</title><path d="M18 20L3 20 3 0 14 0 18 4 18 20z"/><path fill="#fff" d="M13 1L4 1 4 19 17 19 17 5 13 1z"/><path d="M13 0H14V5H13z"/><path d="M13 4H18V5H13zM5 16H10V18H5zM11 16H16V18H11zM5 13H10V15H5zM11 13H16V15H11zM5 10H10V12H5zM11 10H16V12H11zM5 7H10V9H5zM11 7H16V9H11zM5 4H10V6H5zM11 4H12V6H11z"/><g><path d="M13,1V18L4,17V2Z" fill="#fff"/><path d="M12,2V17L2,15.56V3.44Z" fill="#207347"/><path d="M9.28,6.5H8L7,8.67H6.94L6.11,6.56H4.67l1.5,3-1.61,3H5.89l1.06-2.22h0l1,2.22H9.33L7.72,9.5l1.56-3" fill="#fff"/></g></svg>