<svg xmlns="http://www.w3.org/2000/svg" width="40" height="60" viewBox="0 0 40 60"><defs><style>.a{fill:#dbe0ec}.b{fill:#eff1f6}.c{fill:#637491}.d{fill:#fff}.e{fill:none;stroke:#fff;stroke-miterlimit:10;stroke-width:2px}</style></defs><title>custom-checkbox-new</title><path class="a" d="M15,2a3,3,0,0,1,3,3V15a3,3,0,0,1-3,3H5a3,3,0,0,1-3-3V5A3,3,0,0,1,5,2H15m0-2H5A5,5,0,0,0,0,5V15a5,5,0,0,0,5,5H15a5,5,0,0,0,5-5V5a5,5,0,0,0-5-5Z"/><rect class="b" x="1" y="41" width="18" height="18" rx="4" ry="4"/><path class="b" d="M15,42a3,3,0,0,1,3,3V55a3,3,0,0,1-3,3H5a3,3,0,0,1-3-3V45a3,3,0,0,1,3-3H15m0-2H5a5,5,0,0,0-5,5V55a5,5,0,0,0,5,5H15a5,5,0,0,0,5-5V45a5,5,0,0,0-5-5Z"/><rect class="c" x="21" y="21" width="18" height="18" rx="4" ry="4"/><path class="c" d="M35,22a3,3,0,0,1,3,3V35a3,3,0,0,1-3,3H25a3,3,0,0,1-3-3V25a3,3,0,0,1,3-3H35m0-2H25a5,5,0,0,0-5,5V35a5,5,0,0,0,5,5H35a5,5,0,0,0,5-5V25a5,5,0,0,0-5-5Z"/><rect class="b" x="21" y="41" width="18" height="18" rx="4" ry="4"/><path class="d" d="M35,42a3,3,0,0,1,3,3V55a3,3,0,0,1-3,3H25a3,3,0,0,1-3-3V45a3,3,0,0,1,3-3H35m0-2H25a5,5,0,0,0-5,5V55a5,5,0,0,0,5,5H35a5,5,0,0,0,5-5V45a5,5,0,0,0-5-5Z"/><path class="e" d="M23.67 49.4L27.91 53.64 36.4 45.15M23.67 29.55L27.91 33.79 36.4 25.31"/><path class="c" d="M15,22a3,3,0,0,1,3,3V35a3,3,0,0,1-3,3H5a3,3,0,0,1-3-3V25a3,3,0,0,1,3-3H15m0-2H5a5,5,0,0,0-5,5V35a5,5,0,0,0,5,5H15a5,5,0,0,0,5-5V25a5,5,0,0,0-5-5Z"/><rect class="c" x="21" y="1" width="18" height="18" rx="4" ry="4"/><path class="d" d="M35,2a3,3,0,0,1,3,3V15a3,3,0,0,1-3,3H25a3,3,0,0,1-3-3V5a3,3,0,0,1,3-3H35m0-2H25a5,5,0,0,0-5,5V15a5,5,0,0,0,5,5H35a5,5,0,0,0,5-5V5a5,5,0,0,0-5-5Z"/><path class="e" d="M23.67 9.55L27.91 13.79 36.4 5.31"/></svg>