<svg xmlns="http://www.w3.org/2000/svg" width="120" height="20" viewBox="0 0 120 20"><defs><style>.a{fill:#dbe0ec}.b{fill:#eff1f6}.c{fill:#637491}.d{fill:#fff}.e{fill:none;stroke:#fff;stroke-miterlimit:10;stroke-width:2px}</style></defs><title>custom-checkbox</title><path class="a" d="M15,2a3,3,0,0,1,3,3V15a3,3,0,0,1-3,3H5a3,3,0,0,1-3-3V5A3,3,0,0,1,5,2H15m0-2H5A5,5,0,0,0,0,5V15a5,5,0,0,0,5,5H15a5,5,0,0,0,5-5V5a5,5,0,0,0-5-5Z"/><rect class="b" x="41" y="1" width="18" height="18" rx="4" ry="4"/><path class="b" d="M55,2a3,3,0,0,1,3,3V15a3,3,0,0,1-3,3H45a3,3,0,0,1-3-3V5a3,3,0,0,1,3-3H55m0-2H45a5,5,0,0,0-5,5V15a5,5,0,0,0,5,5H55a5,5,0,0,0,5-5V5a5,5,0,0,0-5-5Z"/><rect class="c" x="61" y="1" width="18" height="18" rx="4" ry="4"/><path class="c" d="M75,2a3,3,0,0,1,3,3V15a3,3,0,0,1-3,3H65a3,3,0,0,1-3-3V5a3,3,0,0,1,3-3H75m0-2H65a5,5,0,0,0-5,5V15a5,5,0,0,0,5,5H75a5,5,0,0,0,5-5V5a5,5,0,0,0-5-5Z"/><rect class="b" x="101" y="1" width="18" height="18" rx="4" ry="4"/><path class="d" d="M115,2a3,3,0,0,1,3,3V15a3,3,0,0,1-3,3H105a3,3,0,0,1-3-3V5a3,3,0,0,1,3-3h10m0-2H105a5,5,0,0,0-5,5V15a5,5,0,0,0,5,5h10a5,5,0,0,0,5-5V5a5,5,0,0,0-5-5Z"/><path class="e" d="M103.67 9.39L107.92 13.64 116.4 5.15M63.66 9.55L67.91 13.79 76.39 5.31"/><path class="c" d="M35,2a3,3,0,0,1,3,3V15a3,3,0,0,1-3,3H25a3,3,0,0,1-3-3V5a3,3,0,0,1,3-3H35m0-2H25a5,5,0,0,0-5,5V15a5,5,0,0,0,5,5H35a5,5,0,0,0,5-5V5a5,5,0,0,0-5-5Z"/><rect class="c" x="81" y="1" width="18" height="18" rx="4" ry="4"/><path class="d" d="M95,2a3,3,0,0,1,3,3V15a3,3,0,0,1-3,3H85a3,3,0,0,1-3-3V5a3,3,0,0,1,3-3H95m0-2H85a5,5,0,0,0-5,5V15a5,5,0,0,0,5,5H95a5,5,0,0,0,5-5V5a5,5,0,0,0-5-5Z"/><path class="e" d="M83.65 9.55L87.9 13.79 96.38 5.31"/></svg>