<svg xmlns="http://www.w3.org/2000/svg" width="480" height="510" viewBox="0 0 480 510"><defs><style>.a{fill:#67ad3d}.b,.c{fill-rule:evenodd}.b{fill:url(#a)}.c{fill:url(#b)}</style><radialGradient id="a" cx="243.39" cy="119.73" fx="236.623" fy="106.697" r="36.58" gradientUnits="userSpaceOnUse"><stop offset="0" stop-color="#9cba8b"/><stop offset="1" stop-color="#67ad3d"/></radialGradient><linearGradient id="b" x1="251.38" y1="106.42" x2="238.75" y2="118.4" gradientUnits="userSpaceOnUse"><stop offset="0" stop-color="#67ad3d"/><stop offset="1" stop-color="#40930f"/></linearGradient></defs><title>logo</title><path class="a" d="M75.05,459.42c-7.9,0-11.06-3.86-11.06-10.18a38.4,38.4,0,0,1,.35-5.27H64a30.35,30.35,0,0,1-28.27,17.56c-15.27,0-30.2-9.3-30.2-27,0-28.62,38.63-30.37,53.55-30.37h3.86v-.88c0-15.63-5.79-21.24-19.66-21.24-4.21,0-14.57,1.05-14.57,6.85v5.09h-16v-8.78c0-14.57,22.12-16.68,30.72-16.68,28.79,0,36.52,15.1,36.52,34.76V441c0,2.63,1.4,3.86,3.86,3.86H91v14.57ZM63.11,416.58H58.72c-12.82,0-36,.7-36,17,0,7.2,5.44,14.22,16.68,14.22,14.4,0,23.7-15.1,23.7-28.27v-3Zm86.57,44.95c-19.66,0-27.21-14.22-27.21-14.22h-.35s.35,3.16.35,7.73v39.5h-17V389c0-2.63-1.41-3.86-3.86-3.86h-7.2V370.58h16c7.9,0,10.89,3.34,10.89,9,0,2.63-.18,4.74-.18,4.74h.35s7.37-15.8,29.5-15.8c23.88,0,39.15,19,39.15,46.53,0,28.27-17.21,46.53-40.38,46.53Zm-2.11-78.13c-13.17,0-25.63,9.31-25.63,32,0,15.8,8.6,31.6,25.11,31.6,14,0,25.63-11.59,25.63-31.78,0-19.31-10.36-31.78-25.11-31.78Zm104.36,78.13c-19.66,0-27.21-14.22-27.21-14.22h-.35s.35,3.16.35,7.73v39.5h-17V389c0-2.63-1.4-3.86-3.86-3.86h-7.2V370.58h16c7.9,0,10.88,3.34,10.88,9,0,2.63-.17,4.74-.17,4.74h.35s7.37-15.8,29.5-15.8c23.88,0,39.15,19,39.15,46.53,0,28.27-17.21,46.53-40.38,46.53Zm-2.11-78.13c-13.17,0-25.63,9.31-25.63,32,0,15.8,8.6,31.6,25.11,31.6,14,0,25.63-11.59,25.63-31.78,0-19.31-10.36-31.78-25.11-31.78Zm134,1.76c-3,0-4.74.88-5.79,3.51l-27,70.75H331.37L304,388.66c-1.05-2.63-2.63-3.51-5.44-3.51h-1.76V370.58h8.78c7.9,0,10.89,1.93,13.52,9l19.14,51.09a107.53,107.53,0,0,1,3.16,11.59h.35a107.66,107.66,0,0,1,3.16-11.59l19-51.09c2.63-7,5.79-9,13.52-9h8.25v14.57ZM459,459.42c-7.9,0-11.06-3.86-11.06-10.18a38.5,38.5,0,0,1,.35-5.27H448a30.35,30.35,0,0,1-28.27,17.56c-15.27,0-30.2-9.3-30.2-27,0-28.62,38.63-30.37,53.55-30.37h3.86v-.88c0-15.63-5.79-21.24-19.66-21.24-4.21,0-14.57,1.05-14.57,6.85v5.09h-16v-8.78c0-14.57,22.12-16.68,30.73-16.68,28.79,0,36.52,15.1,36.52,34.76V441c0,2.63,1.4,3.86,3.86,3.86H475v14.57Zm-11.94-42.84h-4.39c-12.82,0-36,.7-36,17,0,7.2,5.44,14.22,16.68,14.22,14.4,0,23.7-15.1,23.7-28.27v-3Z"/><path class="b" d="M235.78,8.31c61.13-1.05,100.88,33.61,118.38,76.26,9.4,22.91,12.08,55.53,3.77,82a128.4,128.4,0,0,1-18.18,36.13c-14.58,20.43-36.58,33.9-51.87,53.87-2.46,3.21-14,17.28-12.64,21.28,8.77,4,12.33,19.46,6.21,28.82-5.73,8.75-26.27,15.86-46.11,14.85-13.21-.67-24.47-3.16-31.92-10.64-3.65-3.66-8.62-17.27,2.66-14.19,2.26,3.1,2.69,7,6,9.09,10.11,6.5,33.53,6.63,46.11,2.22,5.22-1.83,16.72-5.78,14.63-14.19-1.59-6.38-10.11-9.21-16-11.53-14.8-5.87-34.22-8.13-47.44-16-6-3.57-14.46-8.67-12.64-19.73,3.05-18.48,22.14-19.72,38.57-24.83,11.85-3.68,21.73-8.21,30.37-14.85,9.28-7.14,13.27-17.35,8-31.7-2.07-5.61-5.48-10.68-8.65-15.3-4.14,2.68-8.21,5.48-13.52,7.09-7.07,2.15-16.69,1.3-22.83-.89-13.28-4.72-21.87-14.46-25-29.26-1.78-8.29-.39-17.68-2-25.49L197,92.54c.52-.07,1,.13,1.5.06-.3-.07,1.29,0,1-.06,43.51-.23,72-5.26,79.3,32.36,1.49,7.68-.65,16.33-3.1,21.28-.84,1.69-4.12,5.9-3.55,7.09l4,5.32a76.43,76.43,0,0,1,7.76,14.63c10.4,26.5-7.5,42.38-23.72,51.65-11.77,6.73-27,9.43-40.12,14.85-3.46,1.43-11.8,4.49-9.31,10,1.76,3.66,7.23,5.26,11.08,6.87,7.14,3,14.93,5.11,22.83,7.54L258.83,269c1.63-8.54,10.55-18,15.3-24.16,15.72-20.44,37.89-34.55,52.76-55.64,6-8.44,10.56-18.65,14-29.48L344.4,142c2.74-15.07-1-31.85-4.43-42.78C329.42,66,306.78,44.54,275.24,32.25c-18.56-7.23-48.82-7-67.61-.22-31.84,11.45-55.08,34.2-65.4,67.17-4.6,14.69-6.81,37.41-2.44,54.53,6.65,26,20.38,46.66,39.46,60.3a127.62,127.62,0,0,0,16.18,9.75l8.2,3.77h-.44c-4.91,3.78-10.55,6.76-11.53,14.41-9.72-2-22.89-13.24-29.93-18.84-27-21.55-52.72-69.4-39.68-120.59,2.73-10.7,6.25-21.27,11.31-29.93C149,45.81,169.74,27.08,200.31,15.18c7.17-2.79,15.27-4.17,23.5-5.76l12-1.11Z"/><path class="c" d="M197.2,92.53c5.49,1.54,12,5.6,16,7.33a122.33,122.33,0,0,1,45.67,35c2,2.45,9.93,10.58,13.57,16.85.78-1.76,2.66-4.31,3.27-5.54,2.45-4.95,4.59-13.6,3.1-21.28C271.5,87.28,243,92.31,199.48,92.54c.3.07-1.29,0-1,.06A9.59,9.59,0,0,1,197.2,92.53Z"/></svg>