<svg xmlns="http://www.w3.org/2000/svg" xmlns:xlink="http://www.w3.org/1999/xlink" width="480" height="120" viewBox="0 0 480 120"><defs><style>.a,.b{fill-rule:evenodd}.a{fill:url(#a)}.b{fill:url(#b)}.c{fill:url(#c)}.d{fill:url(#d)}.e{fill:url(#e)}.f{fill:url(#f)}</style><radialGradient id="a" cx="48.01" cy="44.89" r="12.02" gradientUnits="userSpaceOnUse"><stop offset="0" stop-color="#9cba8b"/><stop offset="1" stop-color="#67ad3d"/></radialGradient><linearGradient id="b" x1="50.63" y1="40.52" x2="46.48" y2="44.45" gradientUnits="userSpaceOnUse"><stop offset="0" stop-color="#67ad3d"/><stop offset="1" stop-color="#40930f"/></linearGradient><linearGradient id="c" x1="173.01" y1="105.66" x2="173.01" y2="14.05" gradientUnits="userSpaceOnUse"><stop offset=".01" stop-color="#67ad3d"/><stop offset=".48" stop-color="#40930f"/><stop offset=".52" stop-color="#67ad3d"/><stop offset=".78" stop-color="#91ba79"/><stop offset=".84" stop-color="#8eb975"/><stop offset=".89" stop-color="#86b769"/><stop offset=".95" stop-color="#78b255"/><stop offset="1" stop-color="#67ad3d"/></linearGradient><linearGradient id="d" x1="286.2" y1="107.78" x2="286.2" y2="14.05" xlink:href="#c"/><linearGradient id="e" x1="368.08" y1="107.78" x2="368.08" y2="14.05" xlink:href="#c"/><linearGradient id="f" x1="442.01" y1="107.78" x2="442.01" y2="14.05" xlink:href="#c"/></defs><title>mcss-logo</title><path class="a" d="M45.51,8.29c20.08-.35,33.14,11,38.89,25.05a42.43,42.43,0,0,1,1.24,26.94,42.18,42.18,0,0,1-6,11.87c-4.79,6.71-12,11.14-17,17.7-.81,1.06-4.61,5.68-4.15,7,2.88,1.31,4.05,6.39,2,9.47-1.88,2.87-8.63,5.21-15.15,4.88-4.34-.22-8-1-10.49-3.5-1.2-1.2-2.83-5.67.87-4.66.74,1,.88,2.29,2,3,3.32,2.14,11,2.18,15.15.73,1.71-.6,5.49-1.9,4.81-4.66-.52-2.1-3.32-3-5.24-3.79-4.86-1.93-11.24-2.67-15.58-5.24-2-1.17-4.75-2.85-4.15-6.48,1-6.07,7.27-6.48,12.67-8.16a31,31,0,0,0,10-4.88c3-2.34,4.36-5.7,2.62-10.41a23.49,23.49,0,0,0-2.84-5,17.23,17.23,0,0,1-4.44,2.33,13.36,13.36,0,0,1-7.5-.29,12.3,12.3,0,0,1-8.23-9.61c-.58-2.72-.13-5.81-.66-8.37L32.76,36c.17,0,.32,0,.49,0-.1,0,.42,0,.33,0,14.29-.08,23.66-1.73,26.05,10.63a12,12,0,0,1-1,7c-.28.56-1.35,1.94-1.17,2.33l1.31,1.75a25.11,25.11,0,0,1,2.55,4.81c3.42,8.71-2.46,13.92-7.79,17-3.87,2.21-8.88,3.1-13.18,4.88-1.14.47-3.88,1.48-3.06,3.28.58,1.2,2.37,1.73,3.64,2.26,2.35,1,4.9,1.68,7.5,2.48l4.66,1.6c.54-2.81,3.47-5.91,5-7.94,5.16-6.71,12.45-11.35,17.33-18.28A35.24,35.24,0,0,0,80,58l1.17-5.83c.9-5-.32-10.46-1.46-14.05-3.46-10.92-10.9-18-21.26-22-6.1-2.38-16-2.29-22.21-.07C25.8,19.84,18.17,27.32,14.78,38.15,13.27,43,12.54,50.44,14,56.06c2.18,8.56,6.69,15.33,13,19.81a41.92,41.92,0,0,0,5.32,3.2l2.69,1.24H34.8C33.19,81.55,31.34,82.53,31,85c-3.19-.65-7.52-4.35-9.83-6.19-8.88-7.08-17.32-22.8-13-39.61a38.79,38.79,0,0,1,3.71-9.83,41.81,41.81,0,0,1,22-18.86,45.49,45.49,0,0,1,7.72-1.89l3.93-.36Z"/><path class="b" d="M32.83,36a40.7,40.7,0,0,1,5.25,2.41,40.19,40.19,0,0,1,15,11.51,46.83,46.83,0,0,1,4.46,5.53c.25-.58.88-1.42,1.08-1.82a12,12,0,0,0,1-7C57.24,34.23,47.88,35.89,33.58,36c.1,0-.42,0-.33,0A3.15,3.15,0,0,1,32.83,36Z"/><g><path class="c" d="M105,16.17h16.62V28a62.81,62.81,0,0,1-.35,6.54h.35C125.88,24.13,138.44,14,152.41,14c15,0,23.88,6.9,26.88,20.34h.35C184.6,23.6,197,14,211.48,14,231.64,14,241,25.54,241,48.36v57.3H223.86V52.07c0-12.56-2.48-22.46-15.92-22.46-12.56,0-21.93,10.61-25.11,22.81a53.36,53.36,0,0,0-1.24,12.38v40.85H164.43V52.07c0-11.67-1.77-22.46-15.56-22.46-13.09,0-22.28,10.79-25.64,23.52a49.45,49.45,0,0,0-1.06,11.67v40.85H105Z"/><path class="d" d="M292.3,14c22.46,0,33.6,13.09,33.6,13.09l-8.14,12A36.25,36.25,0,0,0,293,28.9c-18,0-31.13,13.44-31.13,31.83,0,18.22,13.09,32.19,31.66,32.19,16.62,0,27.59-12,27.59-12L328,93.46s-12.38,14.33-35.73,14.33c-28.12,0-47.93-20-47.93-46.87C244.37,34.39,264.18,14,292.3,14Z"/><path class="e" d="M343.24,82.49s10.08,10.43,25.64,10.43c7.43,0,14.86-3.89,14.86-11.14,0-16.45-46-13.09-46-42.27,0-16.27,14.5-25.47,32.36-25.47,19.63,0,28.83,9.9,28.83,9.9L392,36.86s-8-8-22.11-8c-7.43,0-14.68,3.18-14.68,11,0,16.09,46,12.56,46,41.92,0,14.86-12.73,26-32.36,26-21.93,0-34-13.09-34-13.09Z"/><path class="f" d="M417.16,82.49s10.08,10.43,25.64,10.43c7.43,0,14.86-3.89,14.86-11.14,0-16.45-46-13.09-46-42.27C411.68,23.24,426.18,14,444,14c19.63,0,28.83,9.9,28.83,9.9L466,36.86s-8-8-22.11-8c-7.43,0-14.68,3.18-14.68,11,0,16.09,46,12.56,46,41.92,0,14.86-12.73,26-32.36,26-21.93,0-34-13.09-34-13.09Z"/></g></svg>